<?xml version="1.0" encoding="UTF-8"?>
<svg id="Layer_1" data-name="Layer 1" xmlns="http://www.w3.org/2000/svg" xmlns:xlink="http://www.w3.org/1999/xlink" viewBox="0 0 281.04 66.63">
  <defs>
    <style>
      .cls-1 {
        fill: url(#linear-gradient-15);
      }

      .cls-2 {
        fill: url(#linear-gradient-13);
      }

      .cls-3 {
        fill: url(#linear-gradient-28);
      }

      .cls-4 {
        fill: url(#linear-gradient-2);
      }

      .cls-5 {
        fill: url(#linear-gradient-25);
      }

      .cls-6 {
        fill: url(#linear-gradient-10);
      }

      .cls-7 {
        fill: url(#linear-gradient-12);
      }

      .cls-8 {
        fill: url(#linear-gradient-27);
      }

      .cls-9 {
        fill: #a79131;
      }

      .cls-10 {
        fill: url(#linear-gradient-26);
      }

      .cls-11 {
        fill: url(#linear-gradient-4);
      }

      .cls-12 {
        fill: url(#linear-gradient-35);
      }

      .cls-13 {
        fill: url(#linear-gradient-30);
      }

      .cls-14 {
        fill: url(#linear-gradient-3);
      }

      .cls-15 {
        fill: url(#linear-gradient-34);
      }

      .cls-16 {
        fill: url(#linear-gradient-5);
      }

      .cls-17 {
        fill: url(#linear-gradient-22);
      }

      .cls-18 {
        fill: url(#linear-gradient-24);
      }

      .cls-19 {
        fill: url(#linear-gradient-33);
      }

      .cls-20 {
        fill: url(#linear-gradient-8);
      }

      .cls-21 {
        fill: url(#linear-gradient-14);
      }

      .cls-22 {
        fill: url(#linear-gradient-29);
      }

      .cls-23 {
        fill: url(#linear-gradient-20);
      }

      .cls-24 {
        fill: url(#linear-gradient-17);
      }

      .cls-25 {
        fill: url(#linear-gradient-7);
      }

      .cls-26 {
        fill: url(#linear-gradient-9);
      }

      .cls-27 {
        fill: url(#linear-gradient-11);
      }

      .cls-28 {
        fill: url(#linear-gradient-19);
      }

      .cls-29 {
        fill: url(#linear-gradient-6);
      }

      .cls-30 {
        fill: url(#linear-gradient-21);
      }

      .cls-31 {
        fill: url(#linear-gradient-32);
      }

      .cls-32 {
        fill: url(#linear-gradient-16);
      }

      .cls-33 {
        fill: url(#linear-gradient);
      }

      .cls-34 {
        fill: url(#linear-gradient-23);
      }

      .cls-35 {
        fill: url(#linear-gradient-31);
      }

      .cls-36 {
        fill: url(#linear-gradient-18);
      }
    </style>
    <linearGradient id="linear-gradient" x1="55.44" y1="39.95" x2="88.9" y2="39.95" gradientUnits="userSpaceOnUse">
      <stop offset="0" stop-color="#a79131"/>
      <stop offset=".57" stop-color="#536c31"/>
      <stop offset="1" stop-color="#124f31"/>
    </linearGradient>
    <linearGradient id="linear-gradient-2" x1="91.16" y1="39.96" x2="118.67" y2="39.96" xlink:href="#linear-gradient"/>
    <linearGradient id="linear-gradient-3" x1="120.91" x2="154.38" xlink:href="#linear-gradient"/>
    <linearGradient id="linear-gradient-4" x1="156.63" y1="39.96" x2="184.14" y2="39.96" xlink:href="#linear-gradient"/>
    <linearGradient id="linear-gradient-5" x1="187.76" x2="216.32" xlink:href="#linear-gradient"/>
    <linearGradient id="linear-gradient-6" x1="221.05" x2="244.55" xlink:href="#linear-gradient"/>
    <linearGradient id="linear-gradient-7" x1="249.74" y1="39.95" x2="281.04" y2="39.95" xlink:href="#linear-gradient"/>
    <linearGradient id="linear-gradient-8" x1="52.47" y1="132.13" x2="278.07" y2="132.13" gradientTransform="translate(2.97 -92.18)" xlink:href="#linear-gradient"/>
    <linearGradient id="linear-gradient-9" x1="52.47" y1="132.13" x2="278.07" y2="132.13" gradientTransform="translate(2.97 -92.18)" xlink:href="#linear-gradient"/>
    <linearGradient id="linear-gradient-10" x1="52.47" y1="132.13" x2="278.07" y2="132.13" gradientTransform="translate(2.97 -92.18)" xlink:href="#linear-gradient"/>
    <linearGradient id="linear-gradient-11" x1="52.47" y1="132.13" x2="278.07" y2="132.13" gradientTransform="translate(2.97 -92.18)" xlink:href="#linear-gradient"/>
    <linearGradient id="linear-gradient-12" x1="52.47" y1="132.13" x2="278.07" y2="132.13" gradientTransform="translate(2.97 -92.18)" xlink:href="#linear-gradient"/>
    <linearGradient id="linear-gradient-13" x1="52.47" y1="132.13" x2="278.07" y2="132.13" gradientTransform="translate(2.97 -92.18)" xlink:href="#linear-gradient"/>
    <linearGradient id="linear-gradient-14" x1="52.47" y1="132.13" x2="278.07" y2="132.13" gradientTransform="translate(2.97 -92.18)" xlink:href="#linear-gradient"/>
    <linearGradient id="linear-gradient-15" x1="11.36" y1="42.42" x2="35.01" y2="42.42" xlink:href="#linear-gradient"/>
    <linearGradient id="linear-gradient-16" x1="17.13" y1="62.05" x2="29.42" y2="62.05" xlink:href="#linear-gradient"/>
    <linearGradient id="linear-gradient-17" x1="17.13" y1="53.61" x2="29.42" y2="53.61" xlink:href="#linear-gradient"/>
    <linearGradient id="linear-gradient-18" x1="19.76" y1="9.83" x2="26.74" y2="9.83" xlink:href="#linear-gradient"/>
    <linearGradient id="linear-gradient-19" x1="19.74" y1="29.85" x2="26.82" y2="29.85" xlink:href="#linear-gradient"/>
    <linearGradient id="linear-gradient-20" x1="31.47" y1="57.93" x2="37.97" y2="57.93" xlink:href="#linear-gradient"/>
    <linearGradient id="linear-gradient-21" x1="28.86" y1="34.53" x2="33.71" y2="34.53" xlink:href="#linear-gradient"/>
    <linearGradient id="linear-gradient-22" x1="8.57" y1="58.02" x2="15.08" y2="58.02" xlink:href="#linear-gradient"/>
    <linearGradient id="linear-gradient-23" x1="31.47" y1="49.48" x2="37.99" y2="49.48" xlink:href="#linear-gradient"/>
    <linearGradient id="linear-gradient-24" x1="8.57" y1="49.57" x2="15.08" y2="49.57" xlink:href="#linear-gradient"/>
    <linearGradient id="linear-gradient-25" x1="12.85" y1="34.53" x2="17.69" y2="34.53" xlink:href="#linear-gradient"/>
    <linearGradient id="linear-gradient-26" x1="0" y1="53.8" x2="6.33" y2="53.8" xlink:href="#linear-gradient"/>
    <linearGradient id="linear-gradient-27" x1="40.22" y1="53.8" x2="46.56" y2="53.8" xlink:href="#linear-gradient"/>
    <linearGradient id="linear-gradient-28" x1="13" y1="16.76" x2="19.98" y2="16.76" xlink:href="#linear-gradient"/>
    <linearGradient id="linear-gradient-29" x1="0" y1="45.45" x2="6.33" y2="45.45" xlink:href="#linear-gradient"/>
    <linearGradient id="linear-gradient-30" x1="0" y1="38.73" x2="10.87" y2="38.73" xlink:href="#linear-gradient"/>
    <linearGradient id="linear-gradient-31" x1="7.17" y1="25.02" x2="12.71" y2="25.02" xlink:href="#linear-gradient"/>
    <linearGradient id="linear-gradient-32" x1="6453.73" y1="45.45" x2="6460.06" y2="45.45" gradientTransform="translate(6500.31) rotate(-180) scale(1 -1)" xlink:href="#linear-gradient"/>
    <linearGradient id="linear-gradient-33" x1="6453.73" y1="38.73" x2="6464.59" y2="38.73" gradientTransform="translate(6500.31) rotate(-180) scale(1 -1)" xlink:href="#linear-gradient"/>
    <linearGradient id="linear-gradient-34" x1="6460.9" y1="25.02" x2="6466.44" y2="25.02" gradientTransform="translate(6500.31) rotate(-180) scale(1 -1)" xlink:href="#linear-gradient"/>
    <linearGradient id="linear-gradient-35" x1="26.52" y1="16.76" x2="33.5" y2="16.76" xlink:href="#linear-gradient"/>
  </defs>
  <g>
    <g>
      <g>
        <path class="cls-33" d="M55.44,57.33l12-34.78h9.48l11.99,34.78h-7.88l-2.58-7.93h-12.55l-2.58,7.93h-7.88ZM76.59,43.67l-4.28-13.16h-.27l-4.28,13.16h8.83Z"/>
        <path class="cls-4" d="M105.2,28.23c-3.6,0-5.59,1.65-5.59,3.89-.05,2.5,2.48,3.62,5.5,4.31l3.12.75c6.05,1.36,10.41,4.43,10.43,10.22-.02,6.37-5.01,10.43-13.5,10.43s-13.82-3.89-14.01-11.41h7.11c.24,3.48,2.99,5.25,6.81,5.25s6.15-1.73,6.16-4.28c-.02-2.34-2.12-3.43-5.91-4.35l-3.79-.95c-5.87-1.41-9.49-4.35-9.47-9.48-.03-6.32,5.55-10.53,13.18-10.53s12.84,4.28,12.94,10.48h-7.05c-.27-2.73-2.43-4.33-5.94-4.33Z"/>
        <path class="cls-14" d="M120.91,57.33l12.01-34.78h9.47l11.99,34.78h-7.88l-2.58-7.93h-12.55l-2.58,7.93h-7.88ZM142.07,43.67l-4.28-13.16h-.27l-4.28,13.16h8.83Z"/>
        <path class="cls-11" d="M170.68,28.23c-3.6,0-5.59,1.65-5.59,3.89-.05,2.5,2.48,3.62,5.5,4.31l3.12.75c6.05,1.36,10.41,4.43,10.43,10.22-.02,6.37-5.01,10.43-13.5,10.43s-13.82-3.89-14.01-11.41h7.11c.24,3.48,2.99,5.25,6.81,5.25s6.15-1.73,6.16-4.28c-.02-2.34-2.12-3.43-5.91-4.35l-3.79-.95c-5.88-1.41-9.49-4.35-9.48-9.48-.03-6.32,5.55-10.53,13.18-10.53s12.84,4.28,12.94,10.48h-7.05c-.27-2.73-2.43-4.33-5.94-4.33Z"/>
        <path class="cls-16" d="M187.76,22.56h28.56v6.06h-10.65v28.71h-7.27v-28.71h-10.65v-6.06Z"/>
        <path class="cls-29" d="M221.05,22.56h23.43v6.06h-16.08v8.29h14.87v6.06h-14.87v8.3h16.15v6.06h-23.5V22.56Z"/>
        <path class="cls-25" d="M273.6,34.73c-.56-3.82-3.46-6.15-7.49-6.15-5.38,0-8.92,4.13-8.92,11.36s3.58,11.36,8.86,11.36c3.92,0,6.84-2.14,7.54-5.86l7.44.03c-.8,6.4-6.18,12.33-15.1,12.33s-16.2-6.52-16.2-17.86,7.01-17.86,16.2-17.86c8.05,0,14.13,4.62,15.1,12.65h-7.44Z"/>
      </g>
      <g>
        <path class="cls-20" d="M55.44,57.33l12-34.78h9.48l11.99,34.78h-7.88l-2.58-7.93h-12.55l-2.58,7.93h-7.88ZM76.59,43.67l-4.28-13.16h-.27l-4.28,13.16h8.83Z"/>
        <path class="cls-26" d="M105.2,28.23c-3.6,0-5.59,1.65-5.59,3.89-.05,2.5,2.48,3.62,5.5,4.31l3.12.75c6.05,1.36,10.41,4.43,10.43,10.22-.02,6.37-5.01,10.43-13.5,10.43s-13.82-3.89-14.01-11.41h7.11c.24,3.48,2.99,5.25,6.81,5.25s6.15-1.73,6.16-4.28c-.02-2.34-2.12-3.43-5.91-4.35l-3.79-.95c-5.87-1.41-9.49-4.35-9.47-9.48-.03-6.32,5.55-10.53,13.18-10.53s12.84,4.28,12.94,10.48h-7.05c-.27-2.73-2.43-4.33-5.94-4.33Z"/>
        <path class="cls-6" d="M120.91,57.33l12.01-34.78h9.47l11.99,34.78h-7.88l-2.58-7.93h-12.55l-2.58,7.93h-7.88ZM142.07,43.67l-4.28-13.16h-.27l-4.28,13.16h8.83Z"/>
        <path class="cls-27" d="M170.68,28.23c-3.6,0-5.59,1.65-5.59,3.89-.05,2.5,2.48,3.62,5.5,4.31l3.12.75c6.05,1.36,10.41,4.43,10.43,10.22-.02,6.37-5.01,10.43-13.5,10.43s-13.82-3.89-14.01-11.41h7.11c.24,3.48,2.99,5.25,6.81,5.25s6.15-1.73,6.16-4.28c-.02-2.34-2.12-3.43-5.91-4.35l-3.79-.95c-5.88-1.41-9.49-4.35-9.48-9.48-.03-6.32,5.55-10.53,13.18-10.53s12.84,4.28,12.94,10.48h-7.05c-.27-2.73-2.43-4.33-5.94-4.33Z"/>
        <path class="cls-7" d="M187.76,22.56h28.56v6.06h-10.65v28.71h-7.27v-28.71h-10.65v-6.06Z"/>
        <path class="cls-2" d="M221.05,22.56h23.43v6.06h-16.08v8.29h14.87v6.06h-14.87v8.3h16.15v6.06h-23.5V22.56Z"/>
        <path class="cls-21" d="M273.6,34.73c-.56-3.82-3.46-6.15-7.49-6.15-5.38,0-8.92,4.13-8.92,11.36s3.58,11.36,8.86,11.36c3.92,0,6.84-2.14,7.54-5.86l7.44.03c-.8,6.4-6.18,12.33-15.1,12.33s-16.2-6.52-16.2-17.86,7.01-17.86,16.2-17.86c8.05,0,14.13,4.62,15.1,12.65h-7.44Z"/>
      </g>
    </g>
    <g>
      <polygon class="cls-1" points="11.36 44.07 23.2 38.2 35.01 43.98 29.7 46.62 23.36 43.7 17.03 46.64 11.36 44.07"/>
      <polygon class="cls-32" points="29.42 57.47 29.42 63.61 23.19 66.63 17.13 63.61 17.13 57.47 23.19 60.39 29.42 57.47"/>
      <polygon class="cls-24" points="29.42 49.21 29.42 54.99 23.36 58.01 17.13 54.99 17.13 49.21 23.18 51.94 29.42 49.21"/>
      <path class="cls-36" d="M22.16,6.63c-3.26-.84-3.16-5.66.03-6.48,4.53-1.17,6.4,4.77,2.2,6.57v12.94h-2.23V6.63ZM22.86,2.26c-1.18.26-1.19,2.06,0,2.31,2.31.5,2.31-2.82,0-2.31Z"/>
      <polygon class="cls-28" points="24.4 22.05 24.4 30.58 26.82 32.05 26.82 37.65 23.22 36.04 19.74 37.65 19.74 32.05 22.16 30.58 22.16 22.05 24.4 22.05"/>
      <polygon class="cls-23" points="31.47 62.6 31.47 56.64 36.88 53.89 37.9 53.25 37.97 54.25 37.8 59.57 31.47 62.6 31.47 62.6"/>
      <polygon class="cls-30" points="28.86 28.1 31.2 28.28 31.29 33.84 33.71 35.17 33.71 40.95 28.86 38.47 28.86 28.1"/>
      <polygon class="cls-17" points="15.08 62.6 8.57 59.39 8.57 53.43 15.08 56.64 15.08 62.6 15.08 62.6"/>
      <polygon class="cls-34" points="37.99 44.99 37.99 50.95 31.47 53.98 31.47 48.2 37.99 44.99 37.99 44.99"/>
      <polygon class="cls-18" points="15.08 54.16 8.57 51.04 8.57 44.99 15.08 48.2 15.08 54.16 15.08 54.16"/>
      <polygon class="cls-5" points="12.85 35.17 15.28 33.85 15.35 28.28 17.69 28.11 17.48 38.63 12.85 40.95 12.85 35.17"/>
      <polygon class="cls-10" points="6.33 58.38 0 55.17 0 49.21 6.33 52.42 6.33 58.38 6.33 58.38"/>
      <polygon class="cls-8" points="40.22 58.38 40.22 52.14 46.56 49.21 46.56 55.17 40.22 58.38 40.22 58.38"/>
      <path class="cls-3" d="M15.4,13.56c-3.26-.84-3.16-5.66.03-6.48,4.53-1.17,6.4,4.77,2.2,6.57v12.94h-2.23v-13.03ZM16.1,9.19c-1.18.26-1.19,2.06,0,2.31,2.31.5,2.31-2.82,0-2.31Z"/>
      <g>
        <polygon class="cls-22" points="6.33 49.94 0 46.73 0 40.95 6.33 43.98 6.33 49.94 6.33 49.94"/>
        <g>
          <polygon class="cls-13" points="0 40.95 8.97 38.31 9.07 33.61 10.87 33.48 10.69 42.25 6.33 43.98 0 40.95"/>
          <path class="cls-35" d="M9.08,23.14c-2.59-.67-2.51-4.49.03-5.14,3.59-.93,5.08,3.78,1.75,5.22l-.02,8.95h-1.77l.02-9.02ZM9.63,19.67c-.93.2-.94,1.63,0,1.84,1.83.4,1.83-2.23,0-1.84Z"/>
        </g>
      </g>
      <g>
        <polygon class="cls-31" points="40.25 49.94 46.58 46.73 46.58 40.95 40.25 43.98 40.25 49.94 40.25 49.94"/>
        <g>
          <polygon class="cls-19" points="46.58 40.95 37.61 38.31 37.51 33.61 35.72 33.48 35.89 42.25 40.25 43.98 46.58 40.95"/>
          <path class="cls-15" d="M37.52,32.16h-1.77l-.02-8.95c-3.33-1.43-1.84-6.14,1.75-5.22,2.54.65,2.61,4.48.03,5.14l.02,9.02ZM36.95,21.51c.94-.2.93-1.63,0-1.84-1.83-.4-1.83,2.23,0,1.84Z"/>
        </g>
      </g>
      <path class="cls-12" d="M28.92,13.56c-3.26-.84-3.16-5.66.03-6.48,4.53-1.17,6.4,4.77,2.2,6.57v12.94h-2.23v-13.03ZM29.62,9.19c-1.18.26-1.19,2.06,0,2.31,2.31.5,2.31-2.82,0-2.31Z"/>
    </g>
  </g>
  <g>
    <g>
      <g>
        <path class="cls-9" d="M55.44,57.33l12-34.78h9.48l11.99,34.78h-7.88l-2.58-7.93h-12.55l-2.58,7.93h-7.88ZM76.59,43.67l-4.28-13.16h-.27l-4.28,13.16h8.83Z"/>
        <path class="cls-9" d="M105.2,28.23c-3.6,0-5.59,1.65-5.59,3.89-.05,2.5,2.48,3.62,5.5,4.31l3.12.75c6.05,1.36,10.41,4.43,10.43,10.22-.02,6.37-5.01,10.43-13.5,10.43s-13.82-3.89-14.01-11.41h7.11c.24,3.48,2.99,5.25,6.81,5.25s6.15-1.73,6.16-4.28c-.02-2.34-2.12-3.43-5.91-4.35l-3.79-.95c-5.87-1.41-9.49-4.35-9.47-9.48-.03-6.32,5.55-10.53,13.18-10.53s12.84,4.28,12.94,10.48h-7.05c-.27-2.73-2.43-4.33-5.94-4.33Z"/>
        <path class="cls-9" d="M120.91,57.33l12.01-34.78h9.47l11.99,34.78h-7.88l-2.58-7.93h-12.55l-2.58,7.93h-7.88ZM142.07,43.67l-4.28-13.16h-.27l-4.28,13.16h8.83Z"/>
        <path class="cls-9" d="M170.68,28.23c-3.6,0-5.59,1.65-5.59,3.89-.05,2.5,2.48,3.62,5.5,4.31l3.12.75c6.05,1.36,10.41,4.43,10.43,10.22-.02,6.37-5.01,10.43-13.5,10.43s-13.82-3.89-14.01-11.41h7.11c.24,3.48,2.99,5.25,6.81,5.25s6.15-1.73,6.16-4.28c-.02-2.34-2.12-3.43-5.91-4.35l-3.79-.95c-5.88-1.41-9.49-4.35-9.48-9.48-.03-6.32,5.55-10.53,13.18-10.53s12.84,4.28,12.94,10.48h-7.05c-.27-2.73-2.43-4.33-5.94-4.33Z"/>
        <path class="cls-9" d="M187.76,22.56h28.56v6.06h-10.65v28.71h-7.27v-28.71h-10.65v-6.06Z"/>
        <path class="cls-9" d="M221.05,22.56h23.43v6.06h-16.08v8.29h14.87v6.06h-14.87v8.3h16.15v6.06h-23.5V22.56Z"/>
        <path class="cls-9" d="M273.6,34.73c-.56-3.82-3.46-6.15-7.49-6.15-5.38,0-8.92,4.13-8.92,11.36s3.58,11.36,8.86,11.36c3.92,0,6.84-2.14,7.54-5.86l7.44.03c-.8,6.4-6.18,12.33-15.1,12.33s-16.2-6.52-16.2-17.86,7.01-17.86,16.2-17.86c8.05,0,14.13,4.62,15.1,12.65h-7.44Z"/>
      </g>
      <g>
        <path class="cls-9" d="M55.44,57.33l12-34.78h9.48l11.99,34.78h-7.88l-2.58-7.93h-12.55l-2.58,7.93h-7.88ZM76.59,43.67l-4.28-13.16h-.27l-4.28,13.16h8.83Z"/>
        <path class="cls-9" d="M105.2,28.23c-3.6,0-5.59,1.65-5.59,3.89-.05,2.5,2.48,3.62,5.5,4.31l3.12.75c6.05,1.36,10.41,4.43,10.43,10.22-.02,6.37-5.01,10.43-13.5,10.43s-13.82-3.89-14.01-11.41h7.11c.24,3.48,2.99,5.25,6.81,5.25s6.15-1.73,6.16-4.28c-.02-2.34-2.12-3.43-5.91-4.35l-3.79-.95c-5.87-1.41-9.49-4.35-9.47-9.48-.03-6.32,5.55-10.53,13.18-10.53s12.84,4.28,12.94,10.48h-7.05c-.27-2.73-2.43-4.33-5.94-4.33Z"/>
        <path class="cls-9" d="M120.91,57.33l12.01-34.78h9.47l11.99,34.78h-7.88l-2.58-7.93h-12.55l-2.58,7.93h-7.88ZM142.07,43.67l-4.28-13.16h-.27l-4.28,13.16h8.83Z"/>
        <path class="cls-9" d="M170.68,28.23c-3.6,0-5.59,1.65-5.59,3.89-.05,2.5,2.48,3.62,5.5,4.31l3.12.75c6.05,1.36,10.41,4.43,10.43,10.22-.02,6.37-5.01,10.43-13.5,10.43s-13.82-3.89-14.01-11.41h7.11c.24,3.48,2.99,5.25,6.81,5.25s6.15-1.73,6.16-4.28c-.02-2.34-2.12-3.43-5.91-4.35l-3.79-.95c-5.88-1.41-9.49-4.35-9.48-9.48-.03-6.32,5.55-10.53,13.18-10.53s12.84,4.28,12.94,10.48h-7.05c-.27-2.73-2.43-4.33-5.94-4.33Z"/>
        <path class="cls-9" d="M187.76,22.56h28.56v6.06h-10.65v28.71h-7.27v-28.71h-10.65v-6.06Z"/>
        <path class="cls-9" d="M221.05,22.56h23.43v6.06h-16.08v8.29h14.87v6.06h-14.87v8.3h16.15v6.06h-23.5V22.56Z"/>
        <path class="cls-9" d="M273.6,34.73c-.56-3.82-3.46-6.15-7.49-6.15-5.38,0-8.92,4.13-8.92,11.36s3.58,11.36,8.86,11.36c3.92,0,6.84-2.14,7.54-5.86l7.44.03c-.8,6.4-6.18,12.33-15.1,12.33s-16.2-6.52-16.2-17.86,7.01-17.86,16.2-17.86c8.05,0,14.13,4.62,15.1,12.65h-7.44Z"/>
      </g>
      <g>
        <path class="cls-9" d="M55.44,57.33l12-34.78h9.48l11.99,34.78h-7.88l-2.58-7.93h-12.55l-2.58,7.93h-7.88ZM76.59,43.67l-4.28-13.16h-.27l-4.28,13.16h8.83Z"/>
        <path class="cls-9" d="M105.2,28.23c-3.6,0-5.59,1.65-5.59,3.89-.05,2.5,2.48,3.62,5.5,4.31l3.12.75c6.05,1.36,10.41,4.43,10.43,10.22-.02,6.37-5.01,10.43-13.5,10.43s-13.82-3.89-14.01-11.41h7.11c.24,3.48,2.99,5.25,6.81,5.25s6.15-1.73,6.16-4.28c-.02-2.34-2.12-3.43-5.91-4.35l-3.79-.95c-5.87-1.41-9.49-4.35-9.47-9.48-.03-6.32,5.55-10.53,13.18-10.53s12.84,4.28,12.94,10.48h-7.05c-.27-2.73-2.43-4.33-5.94-4.33Z"/>
        <path class="cls-9" d="M120.91,57.33l12.01-34.78h9.47l11.99,34.78h-7.88l-2.58-7.93h-12.55l-2.58,7.93h-7.88ZM142.07,43.67l-4.28-13.16h-.27l-4.28,13.16h8.83Z"/>
        <path class="cls-9" d="M170.68,28.23c-3.6,0-5.59,1.65-5.59,3.89-.05,2.5,2.48,3.62,5.5,4.31l3.12.75c6.05,1.36,10.41,4.43,10.43,10.22-.02,6.37-5.01,10.43-13.5,10.43s-13.82-3.89-14.01-11.41h7.11c.24,3.48,2.99,5.25,6.81,5.25s6.15-1.73,6.16-4.28c-.02-2.34-2.12-3.43-5.91-4.35l-3.79-.95c-5.88-1.41-9.49-4.35-9.48-9.48-.03-6.32,5.55-10.53,13.18-10.53s12.84,4.28,12.94,10.48h-7.05c-.27-2.73-2.43-4.33-5.94-4.33Z"/>
        <path class="cls-9" d="M187.76,22.56h28.56v6.06h-10.65v28.71h-7.27v-28.71h-10.65v-6.06Z"/>
        <path class="cls-9" d="M221.05,22.56h23.43v6.06h-16.08v8.29h14.87v6.06h-14.87v8.3h16.15v6.06h-23.5V22.56Z"/>
        <path class="cls-9" d="M273.6,34.73c-.56-3.82-3.46-6.15-7.49-6.15-5.38,0-8.92,4.13-8.92,11.36s3.58,11.36,8.86,11.36c3.92,0,6.84-2.14,7.54-5.86l7.44.03c-.8,6.4-6.18,12.33-15.1,12.33s-16.2-6.52-16.2-17.86,7.01-17.86,16.2-17.86c8.05,0,14.13,4.62,15.1,12.65h-7.44Z"/>
      </g>
    </g>
    <g>
      <polygon class="cls-9" points="11.36 44.07 23.2 38.2 35.01 43.98 29.7 46.62 23.36 43.7 17.03 46.64 11.36 44.07"/>
      <polygon class="cls-9" points="29.42 57.47 29.42 63.61 23.19 66.63 17.13 63.61 17.13 57.47 23.19 60.39 29.42 57.47"/>
      <polygon class="cls-9" points="29.42 49.21 29.42 54.99 23.36 58.01 17.13 54.99 17.13 49.21 23.18 51.94 29.42 49.21"/>
      <path class="cls-9" d="M22.16,6.63c-3.26-.84-3.16-5.66.03-6.48,4.53-1.17,6.4,4.77,2.2,6.57v12.94h-2.23V6.63ZM22.86,2.26c-1.18.26-1.19,2.06,0,2.31,2.31.5,2.31-2.82,0-2.31Z"/>
      <polygon class="cls-9" points="24.4 22.05 24.4 30.58 26.82 32.05 26.82 37.65 23.22 36.04 19.74 37.65 19.74 32.05 22.16 30.58 22.16 22.05 24.4 22.05"/>
      <polygon class="cls-9" points="31.47 62.6 31.47 56.64 36.88 53.89 37.9 53.25 37.97 54.25 37.8 59.57 31.47 62.6 31.47 62.6"/>
      <polygon class="cls-9" points="28.86 28.1 31.2 28.28 31.29 33.84 33.71 35.17 33.71 40.95 28.86 38.47 28.86 28.1"/>
      <polygon class="cls-9" points="15.08 62.6 8.57 59.39 8.57 53.43 15.08 56.64 15.08 62.6 15.08 62.6"/>
      <polygon class="cls-9" points="37.99 44.99 37.99 50.95 31.47 53.98 31.47 48.2 37.99 44.99 37.99 44.99"/>
      <polygon class="cls-9" points="15.08 54.16 8.57 51.04 8.57 44.99 15.08 48.2 15.08 54.16 15.08 54.16"/>
      <polygon class="cls-9" points="12.85 35.17 15.28 33.85 15.35 28.28 17.69 28.11 17.48 38.63 12.85 40.95 12.85 35.17"/>
      <polygon class="cls-9" points="6.33 58.38 0 55.17 0 49.21 6.33 52.42 6.33 58.38 6.33 58.38"/>
      <polygon class="cls-9" points="40.22 58.38 40.22 52.14 46.56 49.21 46.56 55.17 40.22 58.38 40.22 58.38"/>
      <path class="cls-9" d="M15.4,13.56c-3.26-.84-3.16-5.66.03-6.48,4.53-1.17,6.4,4.77,2.2,6.57v12.94h-2.23v-13.03ZM16.1,9.19c-1.18.26-1.19,2.06,0,2.31,2.31.5,2.31-2.82,0-2.31Z"/>
      <g>
        <polygon class="cls-9" points="6.33 49.94 0 46.73 0 40.95 6.33 43.98 6.33 49.94 6.33 49.94"/>
        <g>
          <polygon class="cls-9" points="0 40.95 8.97 38.31 9.07 33.61 10.87 33.48 10.69 42.25 6.33 43.98 0 40.95"/>
          <path class="cls-9" d="M9.08,23.14c-2.59-.67-2.51-4.49.03-5.14,3.59-.93,5.08,3.78,1.75,5.22l-.02,8.95h-1.77l.02-9.02ZM9.63,19.67c-.93.2-.94,1.63,0,1.84,1.83.4,1.83-2.23,0-1.84Z"/>
        </g>
      </g>
      <g>
        <polygon class="cls-9" points="40.25 49.94 46.58 46.73 46.58 40.95 40.25 43.98 40.25 49.94 40.25 49.94"/>
        <g>
          <polygon class="cls-9" points="46.58 40.95 37.61 38.31 37.51 33.61 35.72 33.48 35.89 42.25 40.25 43.98 46.58 40.95"/>
          <path class="cls-9" d="M37.52,32.16h-1.77l-.02-8.95c-3.33-1.43-1.84-6.14,1.75-5.22,2.54.65,2.61,4.48.03,5.14l.02,9.02ZM36.95,21.51c.94-.2.93-1.63,0-1.84-1.83-.4-1.83,2.23,0,1.84Z"/>
        </g>
      </g>
      <path class="cls-9" d="M28.92,13.56c-3.26-.84-3.16-5.66.03-6.48,4.53-1.17,6.4,4.77,2.2,6.57v12.94h-2.23v-13.03ZM29.62,9.19c-1.18.26-1.19,2.06,0,2.31,2.31.5,2.31-2.82,0-2.31Z"/>
    </g>
  </g>
</svg>