<?xml version="1.0" encoding="UTF-8"?>
<svg id="Layer_1" data-name="Layer 1" xmlns="http://www.w3.org/2000/svg" xmlns:xlink="http://www.w3.org/1999/xlink" viewBox="0 0 350 75">
  <defs>
    <style>
      .cls-1 {
        fill: url(#linear-gradient-61);
      }

      .cls-2 {
        fill: url(#linear-gradient-15);
      }

      .cls-3 {
        fill: url(#linear-gradient-13);
      }

      .cls-4 {
        fill: url(#linear-gradient-28);
      }

      .cls-5 {
        fill: url(#linear-gradient-65);
      }

      .cls-6 {
        fill: url(#linear-gradient-69);
      }

      .cls-7 {
        fill: url(#linear-gradient-53);
      }

      .cls-8 {
        fill: url(#linear-gradient-42);
      }

      .cls-9 {
        fill: url(#linear-gradient-46);
      }

      .cls-10 {
        fill: url(#linear-gradient-70);
      }

      .cls-11 {
        fill: url(#linear-gradient-60);
      }

      .cls-12 {
        fill: url(#linear-gradient-2);
      }

      .cls-13 {
        fill: url(#linear-gradient-64);
      }

      .cls-14 {
        fill: url(#linear-gradient-56);
      }

      .cls-15 {
        fill: url(#linear-gradient-43);
      }

      .cls-16 {
        fill: url(#linear-gradient-25);
      }

      .cls-17 {
        fill: url(#linear-gradient-10);
      }

      .cls-18 {
        fill: url(#linear-gradient-12);
      }

      .cls-19 {
        fill: url(#linear-gradient-40);
      }

      .cls-20 {
        fill: url(#linear-gradient-27);
      }

      .cls-21 {
        fill: url(#linear-gradient-68);
      }

      .cls-22 {
        fill: url(#linear-gradient-37);
      }

      .cls-23 {
        fill: url(#linear-gradient-75);
      }

      .cls-24 {
        fill: url(#linear-gradient-55);
      }

      .cls-25 {
        fill: url(#linear-gradient-39);
      }

      .cls-26 {
        fill: url(#linear-gradient-52);
      }

      .cls-27 {
        fill: url(#linear-gradient-58);
      }

      .cls-28 {
        fill: url(#linear-gradient-47);
      }

      .cls-29 {
        fill: url(#linear-gradient-26);
      }

      .cls-30 {
        fill: url(#linear-gradient-74);
      }

      .cls-31 {
        fill: url(#linear-gradient-72);
      }

      .cls-32 {
        fill: url(#linear-gradient-4);
      }

      .cls-33 {
        fill: url(#linear-gradient-35);
      }

      .cls-34 {
        fill: url(#linear-gradient-30);
      }

      .cls-35 {
        fill: url(#linear-gradient-76);
      }

      .cls-36 {
        fill: url(#linear-gradient-73);
      }

      .cls-37 {
        fill: url(#linear-gradient-71);
      }

      .cls-38 {
        fill: url(#linear-gradient-44);
      }

      .cls-39 {
        fill: url(#linear-gradient-49);
      }

      .cls-40 {
        fill: url(#linear-gradient-3);
      }

      .cls-41 {
        fill: url(#linear-gradient-34);
      }

      .cls-42 {
        fill: url(#linear-gradient-5);
      }

      .cls-43 {
        fill: url(#linear-gradient-38);
      }

      .cls-44 {
        fill: url(#linear-gradient-22);
      }

      .cls-45 {
        fill: url(#linear-gradient-24);
      }

      .cls-46 {
        fill: url(#linear-gradient-54);
      }

      .cls-47 {
        fill: url(#linear-gradient-33);
      }

      .cls-48 {
        fill: url(#linear-gradient-51);
      }

      .cls-49 {
        fill: url(#linear-gradient-8);
      }

      .cls-50 {
        fill: url(#linear-gradient-66);
      }

      .cls-51 {
        fill: url(#linear-gradient-57);
      }

      .cls-52 {
        fill: url(#linear-gradient-77);
      }

      .cls-53 {
        fill: url(#linear-gradient-14);
      }

      .cls-54 {
        fill: url(#linear-gradient-62);
      }

      .cls-55 {
        fill: url(#linear-gradient-29);
      }

      .cls-56 {
        fill: url(#linear-gradient-20);
      }

      .cls-57 {
        fill: url(#linear-gradient-67);
      }

      .cls-58 {
        fill: url(#linear-gradient-17);
      }

      .cls-59 {
        fill: url(#linear-gradient-50);
      }

      .cls-60 {
        fill: url(#linear-gradient-7);
      }

      .cls-61 {
        fill: url(#linear-gradient-9);
      }

      .cls-62 {
        fill: url(#linear-gradient-59);
      }

      .cls-63 {
        fill: url(#linear-gradient-11);
      }

      .cls-64 {
        fill: url(#linear-gradient-19);
      }

      .cls-65 {
        fill: url(#linear-gradient-6);
      }

      .cls-66 {
        fill: url(#linear-gradient-36);
      }

      .cls-67 {
        fill: url(#linear-gradient-21);
      }

      .cls-68 {
        fill: url(#linear-gradient-45);
      }

      .cls-69 {
        fill: url(#linear-gradient-48);
      }

      .cls-70 {
        fill: url(#linear-gradient-32);
      }

      .cls-71 {
        fill: url(#linear-gradient-41);
      }

      .cls-72 {
        fill: url(#linear-gradient-16);
      }

      .cls-73 {
        fill: url(#linear-gradient);
      }

      .cls-74 {
        fill: url(#linear-gradient-23);
      }

      .cls-75 {
        fill: url(#linear-gradient-31);
      }

      .cls-76 {
        fill: url(#linear-gradient-63);
      }

      .cls-77 {
        fill: url(#linear-gradient-18);
      }
    </style>
    <linearGradient id="linear-gradient" x1="89.92" y1="43.07" x2="123.38" y2="43.07" gradientUnits="userSpaceOnUse">
      <stop offset="0" stop-color="#a79131"/>
      <stop offset=".57" stop-color="#536c31"/>
      <stop offset="1" stop-color="#124f31"/>
    </linearGradient>
    <linearGradient id="linear-gradient-2" x1="125.64" y1="43.08" x2="153.15" y2="43.08" xlink:href="#linear-gradient"/>
    <linearGradient id="linear-gradient-3" x1="155.39" x2="188.86" xlink:href="#linear-gradient"/>
    <linearGradient id="linear-gradient-4" x1="191.11" y1="43.08" x2="218.62" y2="43.08" xlink:href="#linear-gradient"/>
    <linearGradient id="linear-gradient-5" x1="222.24" x2="250.8" xlink:href="#linear-gradient"/>
    <linearGradient id="linear-gradient-6" x1="255.53" x2="279.03" xlink:href="#linear-gradient"/>
    <linearGradient id="linear-gradient-7" x1="284.23" y1="43.07" x2="315.52" y2="43.07" xlink:href="#linear-gradient"/>
    <linearGradient id="linear-gradient-8" x1="89.74" y1="45.33" x2="315.34" y2="45.33" gradientTransform="translate(.18 -2.25)" xlink:href="#linear-gradient"/>
    <linearGradient id="linear-gradient-9" x1="89.74" y1="45.33" x2="315.34" y2="45.33" gradientTransform="translate(.18 -2.25)" xlink:href="#linear-gradient"/>
    <linearGradient id="linear-gradient-10" x1="89.74" y1="45.33" x2="315.34" y2="45.33" gradientTransform="translate(.18 -2.25)" xlink:href="#linear-gradient"/>
    <linearGradient id="linear-gradient-11" x1="89.74" y1="45.33" x2="315.34" y2="45.33" gradientTransform="translate(.18 -2.25)" xlink:href="#linear-gradient"/>
    <linearGradient id="linear-gradient-12" x1="89.74" y1="45.33" x2="315.34" y2="45.33" gradientTransform="translate(.18 -2.25)" xlink:href="#linear-gradient"/>
    <linearGradient id="linear-gradient-13" x1="89.74" y1="45.33" x2="315.34" y2="45.33" gradientTransform="translate(.18 -2.25)" xlink:href="#linear-gradient"/>
    <linearGradient id="linear-gradient-14" x1="89.74" y1="45.33" x2="315.34" y2="45.33" gradientTransform="translate(.18 -2.25)" xlink:href="#linear-gradient"/>
    <linearGradient id="linear-gradient-15" x1="45.84" y1="45.54" x2="69.49" y2="45.54" xlink:href="#linear-gradient"/>
    <linearGradient id="linear-gradient-16" x1="51.61" y1="65.17" x2="63.9" y2="65.17" xlink:href="#linear-gradient"/>
    <linearGradient id="linear-gradient-17" x1="51.61" y1="56.73" x2="63.9" y2="56.73" xlink:href="#linear-gradient"/>
    <linearGradient id="linear-gradient-18" x1="54.24" y1="12.95" x2="61.22" y2="12.95" xlink:href="#linear-gradient"/>
    <linearGradient id="linear-gradient-19" x1="54.22" y1="32.97" x2="61.3" y2="32.97" xlink:href="#linear-gradient"/>
    <linearGradient id="linear-gradient-20" x1="65.95" y1="61.05" x2="72.45" y2="61.05" xlink:href="#linear-gradient"/>
    <linearGradient id="linear-gradient-21" x1="63.35" y1="37.65" x2="68.19" y2="37.65" xlink:href="#linear-gradient"/>
    <linearGradient id="linear-gradient-22" x1="43.05" y1="61.14" x2="49.57" y2="61.14" xlink:href="#linear-gradient"/>
    <linearGradient id="linear-gradient-23" x1="65.95" y1="52.6" x2="72.47" y2="52.6" xlink:href="#linear-gradient"/>
    <linearGradient id="linear-gradient-24" x1="43.05" y1="52.7" x2="49.57" y2="52.7" xlink:href="#linear-gradient"/>
    <linearGradient id="linear-gradient-25" x1="47.33" y1="37.65" x2="52.17" y2="37.65" xlink:href="#linear-gradient"/>
    <linearGradient id="linear-gradient-26" x1="34.48" y1="56.92" x2="40.81" y2="56.92" xlink:href="#linear-gradient"/>
    <linearGradient id="linear-gradient-27" x1="74.71" y1="56.92" x2="81.04" y2="56.92" xlink:href="#linear-gradient"/>
    <linearGradient id="linear-gradient-28" x1="47.48" y1="19.88" x2="54.47" y2="19.88" xlink:href="#linear-gradient"/>
    <linearGradient id="linear-gradient-29" x1="34.48" y1="48.57" x2="40.81" y2="48.57" xlink:href="#linear-gradient"/>
    <linearGradient id="linear-gradient-30" x1="34.48" y1="41.85" x2="45.35" y2="41.85" xlink:href="#linear-gradient"/>
    <linearGradient id="linear-gradient-31" x1="41.65" y1="28.14" x2="47.2" y2="28.14" xlink:href="#linear-gradient"/>
    <linearGradient id="linear-gradient-32" x1="6491.3" y1="48.57" x2="6497.63" y2="48.57" gradientTransform="translate(6572.36) rotate(-180) scale(1 -1)" xlink:href="#linear-gradient"/>
    <linearGradient id="linear-gradient-33" x1="6491.3" y1="41.85" x2="6502.17" y2="41.85" gradientTransform="translate(6572.36) rotate(-180) scale(1 -1)" xlink:href="#linear-gradient"/>
    <linearGradient id="linear-gradient-34" x1="6498.47" y1="28.14" x2="6504.02" y2="28.14" gradientTransform="translate(6572.36) rotate(-180) scale(1 -1)" xlink:href="#linear-gradient"/>
    <linearGradient id="linear-gradient-35" x1="61" y1="19.88" x2="67.98" y2="19.88" xlink:href="#linear-gradient"/>
    <linearGradient id="linear-gradient-36" x1="34.3" y1="38.69" x2="315.34" y2="38.69" gradientTransform="translate(.18 -2.25)" xlink:href="#linear-gradient"/>
    <linearGradient id="linear-gradient-37" x1="34.3" y1="38.69" x2="315.34" y2="38.69" gradientTransform="translate(.18 -2.25)" xlink:href="#linear-gradient"/>
    <linearGradient id="linear-gradient-38" x1="34.3" y1="38.69" x2="315.34" y2="38.69" gradientTransform="translate(.18 -2.25)" xlink:href="#linear-gradient"/>
    <linearGradient id="linear-gradient-39" x1="34.3" y1="38.69" x2="315.34" y2="38.69" gradientTransform="translate(.18 -2.25)" xlink:href="#linear-gradient"/>
    <linearGradient id="linear-gradient-40" x1="34.3" y1="38.69" x2="315.34" y2="38.69" gradientTransform="translate(.18 -2.25)" xlink:href="#linear-gradient"/>
    <linearGradient id="linear-gradient-41" x1="34.3" y1="38.69" x2="315.34" y2="38.69" gradientTransform="translate(.18 -2.25)" xlink:href="#linear-gradient"/>
    <linearGradient id="linear-gradient-42" x1="34.3" y1="38.69" x2="315.34" y2="38.69" gradientTransform="translate(.18 -2.25)" xlink:href="#linear-gradient"/>
    <linearGradient id="linear-gradient-43" x1="34.3" y1="38.69" x2="315.34" y2="38.69" gradientTransform="translate(.18 -2.25)" xlink:href="#linear-gradient"/>
    <linearGradient id="linear-gradient-44" x1="34.3" y1="38.69" x2="315.34" y2="38.69" gradientTransform="translate(.18 -2.25)" xlink:href="#linear-gradient"/>
    <linearGradient id="linear-gradient-45" x1="34.3" y1="38.69" x2="315.34" y2="38.69" gradientTransform="translate(.18 -2.25)" xlink:href="#linear-gradient"/>
    <linearGradient id="linear-gradient-46" x1="34.3" y1="38.69" x2="315.34" y2="38.69" gradientTransform="translate(.18 -2.25)" xlink:href="#linear-gradient"/>
    <linearGradient id="linear-gradient-47" x1="34.3" y1="38.69" x2="315.34" y2="38.69" gradientTransform="translate(.18 -2.25)" xlink:href="#linear-gradient"/>
    <linearGradient id="linear-gradient-48" x1="34.3" y1="38.69" x2="315.34" y2="38.69" gradientTransform="translate(.18 -2.25)" xlink:href="#linear-gradient"/>
    <linearGradient id="linear-gradient-49" x1="34.3" y1="38.69" x2="315.34" y2="38.69" gradientTransform="translate(.18 -2.25)" xlink:href="#linear-gradient"/>
    <linearGradient id="linear-gradient-50" x1="34.3" y1="38.69" x2="315.34" y2="38.69" gradientTransform="translate(.18 -2.25)" xlink:href="#linear-gradient"/>
    <linearGradient id="linear-gradient-51" x1="34.3" y1="38.69" x2="315.34" y2="38.69" gradientTransform="translate(.18 -2.25)" xlink:href="#linear-gradient"/>
    <linearGradient id="linear-gradient-52" x1="34.3" y1="38.69" x2="315.34" y2="38.69" gradientTransform="translate(.18 -2.25)" xlink:href="#linear-gradient"/>
    <linearGradient id="linear-gradient-53" x1="34.3" y1="38.69" x2="315.34" y2="38.69" gradientTransform="translate(.18 -2.25)" xlink:href="#linear-gradient"/>
    <linearGradient id="linear-gradient-54" x1="34.3" y1="38.69" x2="315.34" y2="38.69" gradientTransform="translate(.18 -2.25)" xlink:href="#linear-gradient"/>
    <linearGradient id="linear-gradient-55" x1="34.3" y1="38.69" x2="315.34" y2="38.69" gradientTransform="translate(.18 -2.25)" xlink:href="#linear-gradient"/>
    <linearGradient id="linear-gradient-56" x1="34.3" y1="38.69" x2="315.34" y2="38.69" gradientTransform="translate(.18 -2.25)" xlink:href="#linear-gradient"/>
    <linearGradient id="linear-gradient-57" x1="34.3" y1="38.69" x2="315.34" y2="38.69" gradientTransform="translate(.18 -2.25)" xlink:href="#linear-gradient"/>
    <linearGradient id="linear-gradient-58" x1="34.3" y1="38.69" x2="315.34" y2="38.69" gradientTransform="translate(.18 -2.25)" xlink:href="#linear-gradient"/>
    <linearGradient id="linear-gradient-59" x1="34.3" y1="38.69" x2="315.34" y2="38.69" gradientTransform="translate(.18 -2.25)" xlink:href="#linear-gradient"/>
    <linearGradient id="linear-gradient-60" x1="34.3" y1="38.69" x2="315.34" y2="38.69" gradientTransform="translate(.18 -2.25)" xlink:href="#linear-gradient"/>
    <linearGradient id="linear-gradient-61" x1="34.3" y1="38.69" x2="315.34" y2="38.69" gradientTransform="translate(.18 -2.25)" xlink:href="#linear-gradient"/>
    <linearGradient id="linear-gradient-62" x1="34.3" y1="38.69" x2="315.34" y2="38.69" gradientTransform="translate(.18 -2.25)" xlink:href="#linear-gradient"/>
    <linearGradient id="linear-gradient-63" x1="34.3" y1="38.69" x2="315.34" y2="38.69" gradientTransform="translate(.18 -2.25)" xlink:href="#linear-gradient"/>
    <linearGradient id="linear-gradient-64" x1="34.3" y1="38.69" x2="315.34" y2="38.69" gradientTransform="translate(.18 -2.25)" xlink:href="#linear-gradient"/>
    <linearGradient id="linear-gradient-65" x1="34.3" y1="38.69" x2="315.34" y2="38.69" gradientTransform="translate(.18 -2.25)" xlink:href="#linear-gradient"/>
    <linearGradient id="linear-gradient-66" x1="34.3" y1="38.69" x2="315.34" y2="38.69" gradientTransform="translate(.18 -2.25)" xlink:href="#linear-gradient"/>
    <linearGradient id="linear-gradient-67" x1="34.3" y1="38.69" x2="315.34" y2="38.69" gradientTransform="translate(.18 -2.25)" xlink:href="#linear-gradient"/>
    <linearGradient id="linear-gradient-68" x1="34.3" y1="38.69" x2="315.34" y2="38.69" gradientTransform="translate(.18 -2.25)" xlink:href="#linear-gradient"/>
    <linearGradient id="linear-gradient-69" x1="34.3" y1="38.69" x2="315.34" y2="38.69" gradientTransform="translate(.18 -2.25)" xlink:href="#linear-gradient"/>
    <linearGradient id="linear-gradient-70" x1="34.3" y1="38.69" x2="315.34" y2="38.69" gradientTransform="translate(.18 -2.25)" xlink:href="#linear-gradient"/>
    <linearGradient id="linear-gradient-71" x1="34.3" y1="38.69" x2="315.34" y2="38.69" gradientTransform="translate(.18 -2.25)" xlink:href="#linear-gradient"/>
    <linearGradient id="linear-gradient-72" x1="34.3" y1="38.69" x2="315.34" y2="38.69" gradientTransform="translate(.18 -2.25)" xlink:href="#linear-gradient"/>
    <linearGradient id="linear-gradient-73" x1="34.3" y1="38.69" x2="315.34" y2="38.69" gradientTransform="translate(.18 -2.25)" xlink:href="#linear-gradient"/>
    <linearGradient id="linear-gradient-74" x1="34.3" y1="38.69" x2="315.34" y2="38.69" gradientTransform="translate(.18 -2.25)" xlink:href="#linear-gradient"/>
    <linearGradient id="linear-gradient-75" x1="34.3" y1="38.69" x2="315.34" y2="38.69" gradientTransform="translate(.18 -2.25)" xlink:href="#linear-gradient"/>
    <linearGradient id="linear-gradient-76" x1="34.3" y1="38.69" x2="315.34" y2="38.69" gradientTransform="translate(.18 -2.25)" xlink:href="#linear-gradient"/>
    <linearGradient id="linear-gradient-77" x1="34.3" y1="38.69" x2="315.34" y2="38.69" gradientTransform="translate(.18 -2.25)" xlink:href="#linear-gradient"/>
  </defs>
  <g>
    <g>
      <g>
        <path class="cls-73" d="M89.92,60.46l12-34.78h9.48l11.99,34.78h-7.88l-2.58-7.93h-12.55l-2.58,7.93h-7.88ZM111.07,46.79l-4.28-13.16h-.27l-4.28,13.16h8.83Z"/>
        <path class="cls-12" d="M139.69,31.35c-3.6,0-5.59,1.65-5.59,3.89-.05,2.5,2.48,3.62,5.5,4.31l3.12.75c6.05,1.36,10.41,4.43,10.43,10.22-.02,6.37-5.01,10.43-13.5,10.43s-13.82-3.89-14.01-11.41h7.11c.24,3.48,2.99,5.25,6.81,5.25s6.15-1.73,6.16-4.28c-.02-2.34-2.12-3.43-5.91-4.35l-3.79-.95c-5.87-1.41-9.49-4.35-9.47-9.48-.03-6.32,5.55-10.53,13.18-10.53s12.84,4.28,12.94,10.48h-7.05c-.27-2.73-2.43-4.33-5.94-4.33Z"/>
        <path class="cls-40" d="M155.39,60.46l12.01-34.78h9.47l11.99,34.78h-7.88l-2.58-7.93h-12.55l-2.58,7.93h-7.88ZM176.55,46.79l-4.28-13.16h-.27l-4.28,13.16h8.83Z"/>
        <path class="cls-32" d="M205.16,31.35c-3.6,0-5.59,1.65-5.59,3.89-.05,2.5,2.48,3.62,5.5,4.31l3.12.75c6.05,1.36,10.41,4.43,10.43,10.22-.02,6.37-5.01,10.43-13.5,10.43s-13.82-3.89-14.01-11.41h7.11c.24,3.48,2.99,5.25,6.81,5.25s6.15-1.73,6.16-4.28c-.02-2.34-2.12-3.43-5.91-4.35l-3.79-.95c-5.88-1.41-9.49-4.35-9.48-9.48-.03-6.32,5.55-10.53,13.18-10.53s12.84,4.28,12.94,10.48h-7.05c-.27-2.73-2.43-4.33-5.94-4.33Z"/>
        <path class="cls-42" d="M222.24,25.68h28.56v6.06h-10.65v28.71h-7.27v-28.71h-10.65v-6.06Z"/>
        <path class="cls-65" d="M255.53,25.68h23.43v6.06h-16.08v8.29h14.87v6.06h-14.87v8.3h16.15v6.06h-23.5V25.68Z"/>
        <path class="cls-60" d="M308.08,37.86c-.56-3.82-3.46-6.15-7.49-6.15-5.38,0-8.92,4.13-8.92,11.36s3.58,11.36,8.86,11.36c3.92,0,6.84-2.14,7.54-5.86l7.44.03c-.8,6.4-6.18,12.33-15.1,12.33s-16.2-6.52-16.2-17.86,7.01-17.86,16.2-17.86c8.05,0,14.13,4.62,15.1,12.65h-7.44Z"/>
      </g>
      <g>
        <path class="cls-49" d="M89.92,60.46l12-34.78h9.48l11.99,34.78h-7.88l-2.58-7.93h-12.55l-2.58,7.93h-7.88ZM111.07,46.79l-4.28-13.16h-.27l-4.28,13.16h8.83Z"/>
        <path class="cls-61" d="M139.69,31.35c-3.6,0-5.59,1.65-5.59,3.89-.05,2.5,2.48,3.62,5.5,4.31l3.12.75c6.05,1.36,10.41,4.43,10.43,10.22-.02,6.37-5.01,10.43-13.5,10.43s-13.82-3.89-14.01-11.41h7.11c.24,3.48,2.99,5.25,6.81,5.25s6.15-1.73,6.16-4.28c-.02-2.34-2.12-3.43-5.91-4.35l-3.79-.95c-5.87-1.41-9.49-4.35-9.47-9.48-.03-6.32,5.55-10.53,13.18-10.53s12.84,4.28,12.94,10.48h-7.05c-.27-2.73-2.43-4.33-5.94-4.33Z"/>
        <path class="cls-17" d="M155.39,60.46l12.01-34.78h9.47l11.99,34.78h-7.88l-2.58-7.93h-12.55l-2.58,7.93h-7.88ZM176.55,46.79l-4.28-13.16h-.27l-4.28,13.16h8.83Z"/>
        <path class="cls-63" d="M205.16,31.35c-3.6,0-5.59,1.65-5.59,3.89-.05,2.5,2.48,3.62,5.5,4.31l3.12.75c6.05,1.36,10.41,4.43,10.43,10.22-.02,6.37-5.01,10.43-13.5,10.43s-13.82-3.89-14.01-11.41h7.11c.24,3.48,2.99,5.25,6.81,5.25s6.15-1.73,6.16-4.28c-.02-2.34-2.12-3.43-5.91-4.35l-3.79-.95c-5.88-1.41-9.49-4.35-9.48-9.48-.03-6.32,5.55-10.53,13.18-10.53s12.84,4.28,12.94,10.48h-7.05c-.27-2.73-2.43-4.33-5.94-4.33Z"/>
        <path class="cls-18" d="M222.24,25.68h28.56v6.06h-10.65v28.71h-7.27v-28.71h-10.65v-6.06Z"/>
        <path class="cls-3" d="M255.53,25.68h23.43v6.06h-16.08v8.29h14.87v6.06h-14.87v8.3h16.15v6.06h-23.5V25.68Z"/>
        <path class="cls-53" d="M308.08,37.86c-.56-3.82-3.46-6.15-7.49-6.15-5.38,0-8.92,4.13-8.92,11.36s3.58,11.36,8.86,11.36c3.92,0,6.84-2.14,7.54-5.86l7.44.03c-.8,6.4-6.18,12.33-15.1,12.33s-16.2-6.52-16.2-17.86,7.01-17.86,16.2-17.86c8.05,0,14.13,4.62,15.1,12.65h-7.44Z"/>
      </g>
    </g>
    <g>
      <polygon class="cls-2" points="45.84 47.19 57.68 41.32 69.49 47.1 64.18 49.75 57.84 46.83 51.51 49.76 45.84 47.19"/>
      <polygon class="cls-72" points="63.9 60.59 63.9 66.74 57.67 69.75 51.61 66.74 51.61 60.59 57.67 63.51 63.9 60.59"/>
      <polygon class="cls-58" points="63.9 52.33 63.9 58.11 57.84 61.14 51.61 58.11 51.61 52.33 57.66 55.06 63.9 52.33"/>
      <path class="cls-77" d="M56.64,9.75c-3.26-.84-3.16-5.66.03-6.48,4.53-1.17,6.4,4.77,2.2,6.57v12.94h-2.23v-13.03ZM57.34,5.39c-1.18.26-1.19,2.06,0,2.31,2.31.5,2.31-2.82,0-2.31Z"/>
      <polygon class="cls-64" points="58.88 25.17 58.88 33.7 61.3 35.17 61.3 40.77 57.7 39.16 54.22 40.77 54.22 35.17 56.64 33.7 56.64 25.17 58.88 25.17"/>
      <polygon class="cls-56" points="65.95 65.73 65.95 59.76 71.36 57.02 72.38 56.37 72.45 57.37 72.28 62.69 65.95 65.73 65.95 65.73"/>
      <polygon class="cls-67" points="63.35 31.23 65.69 31.4 65.77 36.96 68.19 38.29 68.19 44.07 63.35 41.59 63.35 31.23"/>
      <polygon class="cls-44" points="49.57 65.73 43.05 62.51 43.05 56.55 49.57 59.76 49.57 65.73 49.57 65.73"/>
      <polygon class="cls-74" points="72.47 48.11 72.47 54.07 65.95 57.1 65.95 51.32 72.47 48.11 72.47 48.11"/>
      <polygon class="cls-45" points="49.57 57.28 43.05 54.16 43.05 48.11 49.57 51.32 49.57 57.28 49.57 57.28"/>
      <polygon class="cls-16" points="47.33 38.29 49.76 36.97 49.83 31.4 52.17 31.23 51.96 41.75 47.33 44.07 47.33 38.29"/>
      <polygon class="cls-29" points="40.81 61.5 34.48 58.29 34.48 52.33 40.81 55.54 40.81 61.5 40.81 61.5"/>
      <polygon class="cls-20" points="74.71 61.5 74.71 55.27 81.04 52.33 81.04 58.29 74.71 61.5 74.71 61.5"/>
      <path class="cls-4" d="M49.89,16.69c-3.26-.84-3.16-5.66.03-6.48,4.53-1.17,6.4,4.77,2.2,6.57v12.94h-2.23v-13.03ZM50.58,12.32c-1.18.26-1.19,2.06,0,2.31,2.31.5,2.31-2.82,0-2.31Z"/>
      <g>
        <polygon class="cls-55" points="40.81 53.06 34.48 49.85 34.48 44.07 40.81 47.1 40.81 53.06 40.81 53.06"/>
        <g>
          <polygon class="cls-34" points="34.48 44.07 43.45 41.43 43.55 36.73 45.35 36.6 45.17 45.38 40.81 47.1 34.48 44.07"/>
          <path class="cls-75" d="M43.56,26.26c-2.59-.67-2.51-4.49.03-5.14,3.59-.93,5.08,3.78,1.75,5.22l-.02,8.95h-1.77l.02-9.02ZM44.11,22.8c-.93.2-.94,1.63,0,1.84,1.83.4,1.83-2.23,0-1.84Z"/>
        </g>
      </g>
      <g>
        <polygon class="cls-70" points="74.73 53.06 81.06 49.85 81.06 44.07 74.73 47.1 74.73 53.06 74.73 53.06"/>
        <g>
          <polygon class="cls-47" points="81.06 44.07 72.09 41.43 72 36.73 70.2 36.6 70.37 45.38 74.73 47.1 81.06 44.07"/>
          <path class="cls-41" d="M72.01,35.28h-1.77l-.02-8.95c-3.33-1.43-1.84-6.14,1.75-5.22,2.54.65,2.61,4.48.03,5.14l.02,9.02ZM71.43,24.63c.94-.2.93-1.63,0-1.84-1.83-.4-1.83,2.23,0,1.84Z"/>
        </g>
      </g>
      <path class="cls-33" d="M63.4,16.69c-3.26-.84-3.16-5.66.03-6.48,4.53-1.17,6.4,4.77,2.2,6.57v12.94h-2.23v-13.03ZM64.1,12.32c-1.18.26-1.19,2.06,0,2.31,2.31.5,2.31-2.82,0-2.31Z"/>
    </g>
  </g>
  <g>
    <g>
      <g>
        <path class="cls-66" d="M89.92,60.46l12-34.78h9.48l11.99,34.78h-7.88l-2.58-7.93h-12.55l-2.58,7.93h-7.88ZM111.07,46.79l-4.28-13.16h-.27l-4.28,13.16h8.83Z"/>
        <path class="cls-22" d="M139.69,31.35c-3.6,0-5.59,1.65-5.59,3.89-.05,2.5,2.48,3.62,5.5,4.31l3.12.75c6.05,1.36,10.41,4.43,10.43,10.22-.02,6.37-5.01,10.43-13.5,10.43s-13.82-3.89-14.01-11.41h7.11c.24,3.48,2.99,5.25,6.81,5.25s6.15-1.73,6.16-4.28c-.02-2.34-2.12-3.43-5.91-4.35l-3.79-.95c-5.87-1.41-9.49-4.35-9.47-9.48-.03-6.32,5.55-10.53,13.18-10.53s12.84,4.28,12.94,10.48h-7.05c-.27-2.73-2.43-4.33-5.94-4.33Z"/>
        <path class="cls-43" d="M155.39,60.46l12.01-34.78h9.47l11.99,34.78h-7.88l-2.58-7.93h-12.55l-2.58,7.93h-7.88ZM176.55,46.79l-4.28-13.16h-.27l-4.28,13.16h8.83Z"/>
        <path class="cls-25" d="M205.16,31.35c-3.6,0-5.59,1.65-5.59,3.89-.05,2.5,2.48,3.62,5.5,4.31l3.12.75c6.05,1.36,10.41,4.43,10.43,10.22-.02,6.37-5.01,10.43-13.5,10.43s-13.82-3.89-14.01-11.41h7.11c.24,3.48,2.99,5.25,6.81,5.25s6.15-1.73,6.16-4.28c-.02-2.34-2.12-3.43-5.91-4.35l-3.79-.95c-5.88-1.41-9.49-4.35-9.48-9.48-.03-6.32,5.55-10.53,13.18-10.53s12.84,4.28,12.94,10.48h-7.05c-.27-2.73-2.43-4.33-5.94-4.33Z"/>
        <path class="cls-19" d="M222.24,25.68h28.56v6.06h-10.65v28.71h-7.27v-28.71h-10.65v-6.06Z"/>
        <path class="cls-71" d="M255.53,25.68h23.43v6.06h-16.08v8.29h14.87v6.06h-14.87v8.3h16.15v6.06h-23.5V25.68Z"/>
        <path class="cls-8" d="M308.08,37.86c-.56-3.82-3.46-6.15-7.49-6.15-5.38,0-8.92,4.13-8.92,11.36s3.58,11.36,8.86,11.36c3.92,0,6.84-2.14,7.54-5.86l7.44.03c-.8,6.4-6.18,12.33-15.1,12.33s-16.2-6.52-16.2-17.86,7.01-17.86,16.2-17.86c8.05,0,14.13,4.62,15.1,12.65h-7.44Z"/>
      </g>
      <g>
        <path class="cls-15" d="M89.92,60.46l12-34.78h9.48l11.99,34.78h-7.88l-2.58-7.93h-12.55l-2.58,7.93h-7.88ZM111.07,46.79l-4.28-13.16h-.27l-4.28,13.16h8.83Z"/>
        <path class="cls-38" d="M139.69,31.35c-3.6,0-5.59,1.65-5.59,3.89-.05,2.5,2.48,3.62,5.5,4.31l3.12.75c6.05,1.36,10.41,4.43,10.43,10.22-.02,6.37-5.01,10.43-13.5,10.43s-13.82-3.89-14.01-11.41h7.11c.24,3.48,2.99,5.25,6.81,5.25s6.15-1.73,6.16-4.28c-.02-2.34-2.12-3.43-5.91-4.35l-3.79-.95c-5.87-1.41-9.49-4.35-9.47-9.48-.03-6.32,5.55-10.53,13.18-10.53s12.84,4.28,12.94,10.48h-7.05c-.27-2.73-2.43-4.33-5.94-4.33Z"/>
        <path class="cls-68" d="M155.39,60.46l12.01-34.78h9.47l11.99,34.78h-7.88l-2.58-7.93h-12.55l-2.58,7.93h-7.88ZM176.55,46.79l-4.28-13.16h-.27l-4.28,13.16h8.83Z"/>
        <path class="cls-9" d="M205.16,31.35c-3.6,0-5.59,1.65-5.59,3.89-.05,2.5,2.48,3.62,5.5,4.31l3.12.75c6.05,1.36,10.41,4.43,10.43,10.22-.02,6.37-5.01,10.43-13.5,10.43s-13.82-3.89-14.01-11.41h7.11c.24,3.48,2.99,5.25,6.81,5.25s6.15-1.73,6.16-4.28c-.02-2.34-2.12-3.43-5.91-4.35l-3.79-.95c-5.88-1.41-9.49-4.35-9.48-9.48-.03-6.32,5.55-10.53,13.18-10.53s12.84,4.28,12.94,10.48h-7.05c-.27-2.73-2.43-4.33-5.94-4.33Z"/>
        <path class="cls-28" d="M222.24,25.68h28.56v6.06h-10.65v28.71h-7.27v-28.71h-10.65v-6.06Z"/>
        <path class="cls-69" d="M255.53,25.68h23.43v6.06h-16.08v8.29h14.87v6.06h-14.87v8.3h16.15v6.06h-23.5V25.68Z"/>
        <path class="cls-39" d="M308.08,37.86c-.56-3.82-3.46-6.15-7.49-6.15-5.38,0-8.92,4.13-8.92,11.36s3.58,11.36,8.86,11.36c3.92,0,6.84-2.14,7.54-5.86l7.44.03c-.8,6.4-6.18,12.33-15.1,12.33s-16.2-6.52-16.2-17.86,7.01-17.86,16.2-17.86c8.05,0,14.13,4.62,15.1,12.65h-7.44Z"/>
      </g>
      <g>
        <path class="cls-59" d="M89.92,60.46l12-34.78h9.48l11.99,34.78h-7.88l-2.58-7.93h-12.55l-2.58,7.93h-7.88ZM111.07,46.79l-4.28-13.16h-.27l-4.28,13.16h8.83Z"/>
        <path class="cls-48" d="M139.69,31.35c-3.6,0-5.59,1.65-5.59,3.89-.05,2.5,2.48,3.62,5.5,4.31l3.12.75c6.05,1.36,10.41,4.43,10.43,10.22-.02,6.37-5.01,10.43-13.5,10.43s-13.82-3.89-14.01-11.41h7.11c.24,3.48,2.99,5.25,6.81,5.25s6.15-1.73,6.16-4.28c-.02-2.34-2.12-3.43-5.91-4.35l-3.79-.95c-5.87-1.41-9.49-4.35-9.47-9.48-.03-6.32,5.55-10.53,13.18-10.53s12.84,4.28,12.94,10.48h-7.05c-.27-2.73-2.43-4.33-5.94-4.33Z"/>
        <path class="cls-26" d="M155.39,60.46l12.01-34.78h9.47l11.99,34.78h-7.88l-2.58-7.93h-12.55l-2.58,7.93h-7.88ZM176.55,46.79l-4.28-13.16h-.27l-4.28,13.16h8.83Z"/>
        <path class="cls-7" d="M205.16,31.35c-3.6,0-5.59,1.65-5.59,3.89-.05,2.5,2.48,3.62,5.5,4.31l3.12.75c6.05,1.36,10.41,4.43,10.43,10.22-.02,6.37-5.01,10.43-13.5,10.43s-13.82-3.89-14.01-11.41h7.11c.24,3.48,2.99,5.25,6.81,5.25s6.15-1.73,6.16-4.28c-.02-2.34-2.12-3.43-5.91-4.35l-3.79-.95c-5.88-1.41-9.49-4.35-9.48-9.48-.03-6.32,5.55-10.53,13.18-10.53s12.84,4.28,12.94,10.48h-7.05c-.27-2.73-2.43-4.33-5.94-4.33Z"/>
        <path class="cls-46" d="M222.24,25.68h28.56v6.06h-10.65v28.71h-7.27v-28.71h-10.65v-6.06Z"/>
        <path class="cls-24" d="M255.53,25.68h23.43v6.06h-16.08v8.29h14.87v6.06h-14.87v8.3h16.15v6.06h-23.5V25.68Z"/>
        <path class="cls-14" d="M308.08,37.86c-.56-3.82-3.46-6.15-7.49-6.15-5.38,0-8.92,4.13-8.92,11.36s3.58,11.36,8.86,11.36c3.92,0,6.84-2.14,7.54-5.86l7.44.03c-.8,6.4-6.18,12.33-15.1,12.33s-16.2-6.52-16.2-17.86,7.01-17.86,16.2-17.86c8.05,0,14.13,4.62,15.1,12.65h-7.44Z"/>
      </g>
    </g>
    <g>
      <polygon class="cls-51" points="45.84 47.19 57.68 41.32 69.49 47.1 64.18 49.75 57.84 46.83 51.51 49.76 45.84 47.19"/>
      <polygon class="cls-27" points="63.9 60.59 63.9 66.74 57.67 69.75 51.61 66.74 51.61 60.59 57.67 63.51 63.9 60.59"/>
      <polygon class="cls-62" points="63.9 52.33 63.9 58.11 57.84 61.14 51.61 58.11 51.61 52.33 57.66 55.06 63.9 52.33"/>
      <path class="cls-11" d="M56.64,9.75c-3.26-.84-3.16-5.66.03-6.48,4.53-1.17,6.4,4.77,2.2,6.57v12.94h-2.23v-13.03ZM57.34,5.39c-1.18.26-1.19,2.06,0,2.31,2.31.5,2.31-2.82,0-2.31Z"/>
      <polygon class="cls-1" points="58.88 25.17 58.88 33.7 61.3 35.17 61.3 40.77 57.7 39.16 54.22 40.77 54.22 35.17 56.64 33.7 56.64 25.17 58.88 25.17"/>
      <polygon class="cls-54" points="65.95 65.73 65.95 59.76 71.36 57.02 72.38 56.37 72.45 57.37 72.28 62.69 65.95 65.73 65.95 65.73"/>
      <polygon class="cls-76" points="63.35 31.23 65.69 31.4 65.77 36.96 68.19 38.29 68.19 44.07 63.35 41.59 63.35 31.23"/>
      <polygon class="cls-13" points="49.57 65.73 43.05 62.51 43.05 56.55 49.57 59.76 49.57 65.73 49.57 65.73"/>
      <polygon class="cls-5" points="72.47 48.11 72.47 54.07 65.95 57.1 65.95 51.32 72.47 48.11 72.47 48.11"/>
      <polygon class="cls-50" points="49.57 57.28 43.05 54.16 43.05 48.11 49.57 51.32 49.57 57.28 49.57 57.28"/>
      <polygon class="cls-57" points="47.33 38.29 49.76 36.97 49.83 31.4 52.17 31.23 51.96 41.75 47.33 44.07 47.33 38.29"/>
      <polygon class="cls-21" points="40.81 61.5 34.48 58.29 34.48 52.33 40.81 55.54 40.81 61.5 40.81 61.5"/>
      <polygon class="cls-6" points="74.71 61.5 74.71 55.27 81.04 52.33 81.04 58.29 74.71 61.5 74.71 61.5"/>
      <path class="cls-10" d="M49.89,16.69c-3.26-.84-3.16-5.66.03-6.48,4.53-1.17,6.4,4.77,2.2,6.57v12.94h-2.23v-13.03ZM50.58,12.32c-1.18.26-1.19,2.06,0,2.31,2.31.5,2.31-2.82,0-2.31Z"/>
      <g>
        <polygon class="cls-37" points="40.81 53.06 34.48 49.85 34.48 44.07 40.81 47.1 40.81 53.06 40.81 53.06"/>
        <g>
          <polygon class="cls-31" points="34.48 44.07 43.45 41.43 43.55 36.73 45.35 36.6 45.17 45.38 40.81 47.1 34.48 44.07"/>
          <path class="cls-36" d="M43.56,26.26c-2.59-.67-2.51-4.49.03-5.14,3.59-.93,5.08,3.78,1.75,5.22l-.02,8.95h-1.77l.02-9.02ZM44.11,22.8c-.93.2-.94,1.63,0,1.84,1.83.4,1.83-2.23,0-1.84Z"/>
        </g>
      </g>
      <g>
        <polygon class="cls-30" points="74.73 53.06 81.06 49.85 81.06 44.07 74.73 47.1 74.73 53.06 74.73 53.06"/>
        <g>
          <polygon class="cls-23" points="81.06 44.07 72.09 41.43 72 36.73 70.2 36.6 70.37 45.38 74.73 47.1 81.06 44.07"/>
          <path class="cls-35" d="M72.01,35.28h-1.77l-.02-8.95c-3.33-1.43-1.84-6.14,1.75-5.22,2.54.65,2.61,4.48.03,5.14l.02,9.02ZM71.43,24.63c.94-.2.93-1.63,0-1.84-1.83-.4-1.83,2.23,0,1.84Z"/>
        </g>
      </g>
      <path class="cls-52" d="M63.4,16.69c-3.26-.84-3.16-5.66.03-6.48,4.53-1.17,6.4,4.77,2.2,6.57v12.94h-2.23v-13.03ZM64.1,12.32c-1.18.26-1.19,2.06,0,2.31,2.31.5,2.31-2.82,0-2.31Z"/>
    </g>
  </g>
</svg>