<?xml version="1.0" encoding="UTF-8"?>
<svg id="Layer_8" data-name="Layer 8" xmlns="http://www.w3.org/2000/svg" viewBox="0 0 1058.88 353.38">
  <defs>
    <style>
      .cls-1 {
        fill: #fff;
      }
    </style>
  </defs>
  <g>
    <path class="cls-1" d="M175.29,19.66c2.86,4.1,39.97,96.84,42.92,103.01.12.31.17.37-.25.63-1.26.77-3.71,2.03-7.34,4.08-7.12,3.92-18.01,10.07-24.66,13.65-3.2-6.04-19.03-47.69-25.19-62.47-.49-1.21-.34-1-.63-.43-5.13,11.75-11.87,27.28-22.71,52.16-11.23,25.66-37.42,86.11-44.74,102.67-3.33,2.66-22.47,16.53-25.59,18.93-.45.33-.53.38-.52.31,2.03-4.25,95.35-226.86,98.46-232.56,3.17-.06,7.14-.07,10.23,0h.03Z"/>
    <path class="cls-1" d="M343.16,339.8c-33.2-4.15-48.32-43.24-58.32-62.51-2.02-1.39-4.71-1.25-7.55-1.54-2.9-.23-5.85-.42-8.45-.4-12.38-.76-18.65,8.94-16.3,20.44,1.51,5.88,4.14,12.18,6.44,17.89.34.81.81,2.29.29,2.15-3.77-2.68-5.41-6.17-8.06-11.15-4.38-7.85-7.21-19.82-3.3-27.29,1.8-4.01,5.58-7.96,9.51-9.68,5.2-1.55,11.69-1.64,17.02-.62,10.33,2.76,26.78,1.34,27.7-8.95.55-3.94-.65-8.74.04-12.71.99-4.02,8.04-6.35,5.15-11.26-1.94-3.29.16-3.63,2.26-5.62,3.17-3.55-1.51-8.01-.42-11.94,1.39-4.05,7.65-4.11,10.13-7.74,2.67-3.3,1.12-7.59-1.18-10.46-2.61-4.3-9.49-12.49-10.62-18.73-.49-3.68,7.1-3.06,10.09-7.66.09-.16.1-.29.02-.37-.58-.28-1.33-.12-2.03-.07-2.22.15-5.52.7-7.96.63-2.27-.14-1.36-3.1-1.24-4.77.78-5.56,2.12-10.99,1.92-16.64-.46-21.31-5.22-41.46-11.03-63.31-.4-1.15-.84-2.45-1.75-3.17-1.48-1-2.87,1.18-3.66,2.43-14.65,29.39-51.41,34.56-80.71,47.63-27.25,11.76-53.81,50.91-49.19,86.95-.22,1.51-1.25,2.24-2.62,2.55-5.86,1.54-12.88,3.18-20.51,5.15-41.15,10.47-76,25.03-91.96,67.54-9.05,21.88-24.48,40.46-45.28,43.02-1.2.52-1.92,1.98-1.43,3.22.5,1.26,1.61,1.67,3.1,1.77,26.02.05,52.06-.12,78.08-.14,4.33.52,6.64-3.36,1.66-4.95-40.85-5.22-17.02-55.43,2.52-71.04,23.06-19.87,47.58-22.81,76.74-31.73,43.46-12.6,84.68-40.77,101-84.09h0c-4.44,5-9.01,12.5-13.37,17.82-5.56,5.62-11.75,12.5-17.87,17.3-17.27,13.19-40.72,25.7-61.14,33.01-.99.24-1.74.11-2.12-.54-.48-.85-.4-2.22-.31-3.25.47-5.55,1.51-10.97,3.04-16.19,6.12-20.42,19.42-38.58,37.23-50.25,25.6-14.93,55.64-19,78.97-38.06,1.76-1.61,3.3-2.31,3.69.31,1.11,9.43.99,19.21-.19,29.02-4.27,41.88-33.03,80.22-79.61,88.59-11.83,3.18-25.29,6.95-35.7,13.08-12.92,7.68-23.26,27.22-30.41,40.09-10.27,16.11-21.69,39.79-4.53,57.38,4.84,5.71,11.54,9.46,18.62,11.27,10.51,3.3,25.58-.71,31.17-7.33,28.75-30.83-5.75-56.46-15.71-86.94-3.2-11.09,19.35-14.02,26.82-16.29,10.04-2.01,24.58-4.7,34.7-8.22,6.45-3.23,14.59-5.98,20.36-9.93,3.63-2.83,9.16-6.37,12.58-9.59,3.26-3.47,8.39-8.43,11.69-12.32,1.44-1.67,3.07-4.66,4.38-5.63.08-.02.14.01.16.08.01.03.02.05.03.17-.42,2.83-1.76,5.48-3.19,8.4-6.43,13.63-16.33,22.85-28.2,30.42-3.84,2.57-7.8,5.11-11.82,8.05-41.81,34.87,20.08,98.07,59.29,101.16,11.66.04,36.43-.05,42.34,0,2.02-.19,1.31-3.49-1-4.42ZM178.12,336.81c3.09-2.39,4.62-6.27,6.01-9.86,1.2-3.29,2.15-7.38,2.03-10.73-.11-3.75-.6-7.74-1.55-11.55-1.29-5.84-3.89-10.99-5.43-16.72-.19-.74-.36-1.52-.4-2.27-.12-1.72.66-2.42,1.63-1.37l.04.05c.44.46.89,1.23,1.22,1.87,1.19,2.31,2.36,4.67,3.47,6.98,4.19,8.89,7.74,17.5,7.95,26.93-.17,11.96-8.78,21.47-22,23.76-2.45.47-4.23.53-1.38-1.19,2.79-1.79,5.73-3.87,8.41-5.91Z"/>
    <path class="cls-1" d="M293.99,44.56c0,.27-.7.55-1.79.84-28.22,6.37-35.3,13.68-40.33,42.2-.52,2.46-1.03,2.53-1.68.05-6.36-28.45-11.49-36.68-41.05-42.01-1.64-.37-3.45-.76-1.02-1.33,33.23-7.01,34.81-11.38,42.67-44.03.55-1.03.87,1.09,1,1.59,4.89,28.26,11.59,36.88,40.34,41.92,1.11.24,1.83.49,1.85.76v.02Z"/>
  </g>
  <path class="cls-1" d="M802.51,198.73l47.3,100.93,45.7-99.37c11.84-.26,23.67-.52,35.51-.78.45.47.91.95,1.36,1.42.07.84.13,1.68.2,2.52-4.52,1.18-13.91,2.24-15.45,7.42-1.18,35.14,1.39,70.31,4.47,105.29.36,1.02,1.73,4.51,5.5,6.85,3.82,2.37,7.59,2.02,8.65,1.88-.25,1.61-.5,3.21-.75,4.82-16.57-.04-33.14-.08-49.71-.11.95-8.09,12.89-4.66,14.19-11.81,1.46-7.97,1.43-13.03.06-37.91-.32-5.91-.06-3.19-.53-13.14-.48-10.13-1.28-24.13-2.7-41.18l-49.64,105.75-5.36-2.65-49.03-103.1c-.47,16.56-.92,33.16-1.53,49.72-.44,11.93-3.79,29.08-1.6,40.89.16.84.63,2.22,1.62,3.7,3.16,4.68,9.11,5.8,12.11,6.13.14,1.21.28,2.41.42,3.62h-42.57c.98-8.3,14.2-4.66,15.43-13.74l5.86-104.48c-3.52-7.71-16.34-3.6-14.98-12.65h35.48Z"/>
  <path class="cls-1" d="M398.08,198.73c2.5,8.47-14.19,5.63-14.19,13.4v44.94h66.22v-44.94c0-7.77-16.69-4.93-14.19-13.4h50.46c1.28,7.97-5.07,5.17-9.41,7.14-4.55,2.07-6.01,7.99-6.43,12.49-2.81,30.44,2.17,65.25.17,96.16,1.38,8.44,7.34,9.24,14.67,10.34-.3,3.22-.17,1.87-.47,5.08-4.42-.18-8.9-.32-13.43-.42-12.21-.27-24.07-.23-35.55.06v-4.7c3.37.93,14.2-4.52,14.2-7.12v-51.24h-66.22v51.24c0,2.43,9.47,7.36,13.45,7.23.41-.01.74.33.74.74v3.85h-48.88l.94-4.87c8.16-2.02,11.83-2.92,13.1-11.84,2.78-19.46,2.09-74.1.23-94.53-.49-5.36-1.61-9.48-6.49-12.43-3.43-2.07-9.17.12-7.77-7.21h48.88Z"/>
  <path class="cls-1" d="M756,329.6h-52.03v-4.7c3.78-.18,12.41-1.85,12.31-6.81l-12.14-31.66-51.94-.71c-1.46.9-12.29,30.2-12.24,32.06.25,8.15,13.35,4.18,13.55,11.82h-42.57l.94-4.87c7.14-1.44,12.39-4.2,15.44-11.08l50.63-116.49c2.24-2.75,7.14-2.45,8.37,1.09l52.01,116.7c2.89,8.74,15.72,7.08,17.67,14.65ZM656.66,275.99h41c-4.83-15-11.39-31.31-18.21-45.72-.88-1.85.22-3.86-3.06-3.17l-19.73,48.89Z"/>
  <path class="cls-1" d="M551.02,198.73c.01,10.53-13.59,3.32-15.67,16.65l1.48,104.76h41.78c10.34,0,18.13-16.08,22.47-23.22,2.7-4.45,6.26-2.38,6.06,2.72-.37,9.54-5.68,20.11-5.67,29.96h-93.82c-1.9.34-3.8.68-5.71,1.02-.46-1.91-.93-3.82-1.39-5.74,2.89-.72,5.78-1.44,8.67-2.16,1.83-2.19,3.65-4.38,5.48-6.57.05-15.67.09-31.36.1-47.05.02-17.96,0-35.91-.03-53.85-.02-1.04-.22-4.33-2.7-7.2-3.72-4.31-9.31-3.89-9.91-3.84l-1.61-5.49h50.46Z"/>
  <g>
    <path class="cls-1" d="M1049.27,198.73l3.15,29.96-6.07-.23c-1.1-8.99-10.56-20.27-19.93-20.27h-41.78v48.88h33.9c6.56,0,11.34-9.99,11.85-15.76l4.79.7.73,38.75-5.53,1.54c-.11-4.53-5.56-15.76-10.27-15.76h-35.48v51.24c7.23,5.84,23.13,4.66,32.39,4.01,11.71-.83,21.61-2.12,29.1-11.9,4.59-5.99,4.21-15.57,12.61-13.4,1.12,1.06-4.01,27.75-5.02,30.45-.46,1.23-.84,2.16-2.27,2.46l-99.94,1.08c-1.7-.85-2.12-4.91-1.55-5.59,1.02-1.23,12.35.94,14.1-10.36-1.97-31.49,2.94-66.71.17-97.74-.86-9.62-3.5-10.7-12.66-12.57l-1.61-5.49h99.33Z"/>
    <path class="cls-1" d="M993.43,186.62c8.03-1.11,16.91-4.17,22.7-10.06,6.51-6.61,8.59-16.56,13.05-24.48l5.13-6.9c-15.99-1.88-32.47,2.98-39.31,18.66-1.38,3.17-2.15,6.79-3.4,10.04-1.46,3.79-3.14,7.42-4.9,11.06,15.02-4.42,18.37-22.27,30.53-30.24.42-.09.38.59.27.83-.45,1-3.68,4.26-4.71,5.93-4.22,6.84-6.53,13.92-12.63,19.86l-6.74,5.29Z"/>
  </g>
</svg>